<?xml version="1.0" encoding="utf-8"?>
<svg style="enable-background:new 0 0 735 852;" viewBox="0 0 735 852" y="0px" x="0px" id="Layer_1" version="1.1" xmlns="http://www.w3.org/2000/svg">
  <style id="style2" type="text/css">
	.st0{fill:#428BCA;}
	.st1{opacity:0.25;fill:url(#SVGID_1_);enable-background:new    ;}
	.st2{fill:#3674A8;}
	.st3{fill:#E6B35A;}
	.st4{fill:#FFFFFF;}
	.st5{opacity:0.9;fill:#FFFFFF;enable-background:new    ;}
</style>
  <title id="title4">shiny</title>
  <path style="fill:#ee350f;fill-opacity:1" id="path6" d="M715.1,226.8L366.9,16l-347,210.8v401.5L367.5,829l347.6-200.7V226.8z" class="st0"/>
  <linearGradient gradientTransform="translate(0,60)" y2="281.13" x2="367.44049" y1="-182.39" x1="366.1405" gradientUnits="userSpaceOnUse" id="SVGID_1_">
    <stop id="stop8" style="stop-color:#FFFFFF;stop-opacity:0.83" offset="0"/>
    <stop id="stop10" style="stop-color:#FFFFFF;stop-opacity:0.37" offset="0.56"/>
    <stop id="stop12" style="stop-color:#FFFFFF;stop-opacity:0" offset="1"/>
  </linearGradient>
  <path style="fill-opacity:1;opacity:0.228" id="path15" d="M366.9,340.4c128.2,0,238.6-57,287.8-138.8L367.5,35.8l0,0L79.4,202.2C128.8,283.7,238.9,340.4,366.9,340.4z" class="st1"/>
  <path style="fill:#d1350f;fill-opacity:1" id="path17" d="M734.9,637.4V213.1l-29.3-16.9L427.8,35.8L367.5,1l-60.3,34.8L29.4,196.2L0.1,213.1v424.2l29.3,16.9  l281.3,162.4l56.9,32.8l56.9-32.8l281.3-162.4L734.9,637.4z M29.4,621.5V231l50-28.9L367.5,35.8l0,0l287.2,165.8l50.9,29.4v390.5  L367.5,816.7L29.4,621.5z" class="st2"/>
  <path style="fill:#ffffff;fill-opacity:1;stroke-width:1.23193586" d="M 501.53143,580.81243 H 238.71887 v -26.28088 h -26.28088 v 39.42194 105.12478 c 0,7.25364 5.88742,13.14105 13.14106,13.14105 H 514.6725 c 7.25363,0 13.14105,-5.88741 13.14105,-13.14105 V 593.95349 501.96854 h -26.28089 v 78.84389 z m 0,105.12479 H 238.71887 v -78.8439 h 262.81256 z" id="path899"/>
  <path style="fill:#ffffff;fill-opacity:1;stroke-width:1.23193586" d="M 514.6725,134.02997 H 225.57782 c -7.25365,0 -13.14107,5.88742 -13.14107,13.14105 v 52.56301 65.70284 h 26.28212 v -52.56301 h 91.98495 v -26.28088 h -91.98495 v -26.28212 h 262.81256 v 26.28088 h -91.98495 v 26.28212 h 91.98495 v 52.56301 h 26.28089 V 199.7328 147.17102 c 10e-4,-7.25363 -5.88619,-13.14105 -13.13982,-13.14105 z" id="path906"/>
  <rect x="356.98471" y="633.37421" style="fill:#ffffff;fill-opacity:1;stroke-width:1.23193586" width="26.280886" height="26.280886" id="rect913"/>
  <rect x="356.98471" y="186.59297" style="fill:#ffffff;fill-opacity:1;stroke-width:1.23193586" width="26.280886" height="26.280886" id="rect920"/>
  <g transform="matrix(1.173835,0,0,1.173835,-61.555933,-6.9575901)" id="g1165">
    <path class="st5" d="m 250.04589,344.24834 v 0 c -1.59383,-0.0482 -0.53128,0 0,0 z m -0.0483,0 c -1.54553,-0.0482 -0.86936,0 -0.33808,0 h 0.82106 -0.0483 -0.43468 c 0.33808,0 0.48298,0.0482 0,0 z m 0.43468,0 c 16.8559,0.38637 34.48458,-3.52574 39.60413,-23.5693 3.33255,-12.9438 -4.97466,-22.36186 -12.31592,-31.82821 -0.0482,-0.0482 -0.0966,-0.0966 -0.0966,-0.1932 -0.28979,-1.20744 -8.25892,-8.5487 -10.48061,-11.30166 0,-0.0482 -0.0482,-0.0482 -0.0966,-0.0966 -1.06255,-0.77277 -2.1734,-4.68488 -2.70468,-6.85828 -0.24149,-0.91766 -0.24149,-1.83531 -0.0482,-2.75297 1.93191,-9.85274 2.99446,-17.04911 16.08314,-14.924 9.41807,1.54553 4.54,15.35868 9.61126,16.71102 h 0.0966 c 3.04276,0.28978 8.98339,-7.00318 9.85274,-9.46636 3.38084,-9.56296 -16.13144,-15.40698 -22.07206,-15.0206 -11.92955,0.72446 -19.75378,7.19636 -24.53526,17.87016 -8.79018,19.65719 7.63104,32.74588 17.58038,46.22094 7.53445,10.19082 7.19637,19.2708 -2.02851,28.01268 -10.14252,9.61126 -21.92716,-3.62232 -23.2795,-12.94378 -1.20745,-8.5487 -1.11085,-14.48933 -8.25891,-3.62233 -6.61679,10.09422 0.19319,23.2312 13.08868,23.76249 z m 265.39607,-46.65563 v 0.0966 c -0.19318,2.0768 -0.62786,4.1053 -1.35234,6.08551 -1.25573,3.28424 -2.84956,6.4719 -4.78147,9.41806 -2.36659,3.62233 -3.62233,5.07126 -6.08552,8.25891 -4.63658,6.03722 -8.21062,10.52891 -13.61996,16.27634 -7.53445,7.96912 -15.93825,17.0974 -25.11482,23.61759 -13.0887,9.36976 -29.60652,11.92955 -45.25499,13.37848 -45.78625,4.15361 -113.1616,10.33572 -127.36114,59.88919 -0.0966,0.28979 -0.33808,0.43469 -0.62787,0.33809 -0.14489,-0.0483 -0.24149,-0.0966 -0.28978,-0.24149 -13.90975,-23.76249 -43.80606,-41.19798 -71.52896,-40.37691 -0.28978,0.0483 -0.53127,-0.0966 -0.57957,-0.38638 -0.0483,-0.28979 0.0966,-0.53128 0.38638,-0.57958 71.3841,-35.45053 144.31368,-18.44973 221.39688,-32.21459 19.2708,-3.42914 35.45054,-16.08315 47.09029,-31.29693 4.4434,-5.74743 10.14254,-10.62551 14.05465,-16.75932 0.62787,-1.01425 3.86382,-9.07998 -1.15915,-5.65084 -7.77594,5.26446 -14.34442,11.78465 -22.79653,15.88997 -0.38638,0.19318 -0.82106,0.38637 -1.25574,0.53126 -0.14489,0.0483 -0.24149,0.1932 -0.28978,0.33809 -1.20745,3.96042 -2.89786,7.77594 -5.07127,11.30166 -2.55978,4.00872 -5.98892,7.43786 -10.04593,9.99765 -3.76722,2.51148 -8.16231,3.9604 -12.654,4.29849 -0.62787,0.0482 -1.20745,0.0482 -1.83531,0.0482 -3.57404,0 -5.89233,-0.28979 -8.6453,-1.69042 -3.52574,-1.83532 -4.63659,-4.82978 -4.87807,-8.45211 -0.14489,-2.17339 1.20744,-4.53998 2.31829,-6.327 1.11084,-1.78702 2.89785,-3.76722 4.1536,-4.2985 l 0.0966,-0.0483 c 6.27871,-4.63658 16.95251,-4.97467 24.19717,-6.95488 0.1932,-0.0482 0.33809,-0.19319 0.33809,-0.33808 l 3.62233,-13.23358 c 0.0966,-0.28978 -0.0966,-0.53128 -0.33809,-0.62787 -0.19319,-0.0482 -0.43468,0.0482 -0.53127,0.19319 -1.83531,2.70468 -3.86382,5.26446 -6.03722,7.67934 -2.84956,2.99446 -5.07126,4.82977 -6.76169,5.50595 -1.9319,0.72446 -3.96041,1.15914 -5.98891,1.25573 -2.41489,0.1449 -4.49169,-0.82106 -6.08552,-2.84957 -1.59383,-2.0285 -2.46318,-5.02296 -2.65637,-8.98337 -0.0482,-0.62788 -0.0482,-1.35234 0,-2.1251 0.0482,-0.28979 -0.0966,-0.53128 -0.33809,-0.62787 -0.28979,-0.0482 -0.53127,0.0966 -0.62787,0.33808 -0.77276,1.49723 -1.54552,2.89787 -2.31829,4.15361 -2.26999,3.96041 -5.11957,7.58274 -8.35551,10.81869 -3.18765,3.18765 -6.27871,4.87807 -9.12827,5.07126 -5.36105,0.33809 -8.25892,-2.70467 -8.64529,-9.07997 -0.38639,-6.08552 2.0285,-18.59463 7.24466,-37.23756 0.28978,-0.82106 0.38638,-1.69042 0.33808,-2.51148 -0.0966,-1.69042 -1.06255,-2.3666 -3.04276,-2.2217 -2.26999,0.19319 -4.44339,1.11085 -6.23041,2.60808 -2.22169,1.88361 -4.057,4.20191 -5.36105,6.80998 -1.59382,2.89786 -2.99446,5.89233 -4.29849,8.93508 -1.35234,3.33255 -2.46319,6.80998 -3.33255,10.33572 -0.96595,3.91212 -1.78702,7.19636 -2.31829,9.75614 -0.57957,2.65638 -1.11085,5.45765 -1.64212,8.35551 -0.38639,2.02851 -0.82107,4.53999 -0.91766,4.92637 l -0.0966,0.38638 -13.28187,0.86936 -0.0483,-0.48298 c -0.0966,-1.15914 0.86936,-5.26445 2.80127,-12.46081 -0.38638,0.67617 -0.77276,1.35234 -1.15914,2.0285 -2.27,3.96042 -5.07127,7.58274 -8.30722,10.8187 -3.18764,3.18765 -6.2787,4.87807 -9.12827,5.07126 -0.19319,0 -0.38638,0 -0.57957,0 -4.68488,0 -7.34126,-3.67063 -7.77594,-10.91529 -0.0966,-1.44893 -0.14489,-2.89786 -0.0966,-4.3951 0.0483,-0.28978 -0.0966,-0.53127 -0.33808,-0.62786 -0.28979,-0.0482 -0.53129,0.0966 -0.62788,0.33808 -7.29295,13.37847 -13.86146,20.14016 -19.94697,20.52653 -5.36104,0.33809 -8.25891,-2.84956 -8.69359,-9.51464 -0.48297,-7.38956 1.54553,-18.20825 6.03722,-32.11801 0.96596,-3.42913 1.40064,-5.79572 1.30403,-7.05146 -0.14489,-1.93191 -1.01424,-2.1734 -1.73871,-2.1734 h -0.19319 c -0.62787,0.0482 -1.98021,0.43468 -4.82977,2.2217 -2.51148,1.64212 -4.68488,3.67062 -6.4719,6.03722 -2.07681,2.70466 -3.71893,5.74743 -4.92638,8.93507 -1.25574,3.38085 -2.26998,6.327 -2.99445,8.79019 -0.72447,2.46319 -1.44893,5.50595 -2.1734,8.98339 -0.72447,3.47743 -1.35234,6.47189 -1.9319,8.69359 -0.57958,2.22169 -1.15916,4.78147 -1.73873,7.72764 l -0.0966,0.38637 -12.7506,0.82107 c -0.28979,0 -0.53129,-0.1932 -0.53129,-0.48298 0,-0.0483 0,-0.0966 0,-0.19319 v 0 c 1.88362,-6.5202 4.54,-17.0974 7.92083,-31.39353 3.38085,-14.29613 6.47191,-25.74269 8.98338,-33.95331 2.17341,-7.14807 4.73319,-14.19954 7.72764,-21.00952 2.3183,-5.31275 5.45765,-10.28742 9.27317,-14.68251 3.62233,-4.05701 7.67934,-6.23041 11.97784,-6.5202 4.53998,-0.28978 6.95488,1.98021 7.29296,6.66509 0.19319,3.13935 -0.72447,7.34126 -2.70468,12.60571 -3.62232,9.32146 -9.65954,20.18845 -18.01505,32.31119 -0.19319,0.1932 -0.19319,0.53127 0,0.72446 0.19319,0.19319 0.53128,0.19319 0.72447,0 1.44892,-1.11084 2.99445,-2.1251 4.63658,-2.94615 2.41488,-1.25575 5.07126,-1.98022 7.82423,-2.2217 5.16786,-0.33809 7.92083,2.0285 8.25892,7.00317 0.14489,1.83532 -0.0483,3.67063 -0.57958,5.40934 -0.48297,1.59383 -1.01425,3.47744 -1.64212,5.55425 -0.57957,2.0768 -1.06255,3.81552 -1.44893,5.11956 -0.38639,1.35233 -0.86937,3.13935 -1.49724,5.40934 -0.62787,2.27 -1.11084,4.2502 -1.40063,5.79573 -0.86936,3.91212 -1.20744,7.05147 -1.06255,9.32147 0.19319,2.89786 1.35234,2.89786 1.73872,2.89786 h 0.14489 c 4.87808,-0.28978 10.62551,-8.79018 17.1457,-25.21142 0.0482,-0.0966 0.0482,-0.14489 0.0966,-0.24149 1.49723,-5.40934 3.38084,-10.7221 5.65083,-15.84166 2.70467,-5.94062 5.98893,-9.07997 9.85274,-9.32147 l 7.72764,-0.38637 c 0.28979,0 0.53128,0.19319 0.53128,0.48298 0,0.14489 -0.0483,0.28978 -0.14489,0.38638 v 0 c -1.20745,1.15914 -2.80128,4.2502 -4.73319,9.22486 -2.02851,5.36105 -3.42913,9.03168 -4.34679,11.49487 -0.91766,2.55978 -1.98021,6.03722 -3.09106,10.38401 -1.11085,4.3468 -1.59382,7.82424 -1.40064,10.43231 0.2415,3.42914 1.54553,3.42914 1.98021,3.42914 h 0.14489 c 0.67617,-0.0483 1.93192,-0.53127 4.20191,-2.60808 1.73871,-1.59382 3.23595,-3.38084 4.49169,-5.36105 1.15915,-1.8836 2.41489,-4.2502 3.81553,-7.14806 1.40063,-2.89786 2.60807,-5.40935 3.62232,-7.53445 1.11085,-2.26999 1.54553,-3.04275 1.83532,-3.33254 l 0.62787,-1.15915 c 2.36658,-9.56294 3.47743,-16.27634 3.23595,-19.99526 0,-0.62787 -0.1449,-1.25574 -0.43469,-1.83531 v 0 c -0.14489,-0.1932 -0.14489,-0.53128 0.0966,-0.67618 0.0966,-0.0482 0.19319,-0.0966 0.28979,-0.0966 l 5.36105,-0.33809 c 3.13935,-0.1932 5.11956,0 6.13381,0.67616 1.01425,0.67617 1.64212,1.78702 1.69042,2.94617 0,1.15914 -0.0966,2.36658 -0.33809,3.52573 -0.0482,0.28979 0.1449,0.53127 0.43468,0.57957 0.1449,0.0482 0.33809,-0.0482 0.43468,-0.14489 6.03723,-6.27871 12.31593,-9.65955 18.78783,-10.04593 5.16786,-0.33808 7.96912,2.1251 8.25891,7.29296 0.0966,1.64212 0,3.28424 -0.33809,4.92637 -0.33807,1.64213 -1.15914,4.82977 -2.60807,9.75614 -3.04276,10.57721 -4.49169,17.67698 -4.2502,21.15441 0.14489,2.46319 1.11084,2.75297 1.83531,2.75297 h 0.14489 c 0.67617,-0.0482 1.93192,-0.53127 4.15361,-2.65638 1.73872,-1.64211 3.23595,-3.47743 4.53999,-5.45764 1.40063,-2.26999 2.70467,-4.63658 3.86382,-7.05146 1.40063,-2.80127 2.55978,-5.31276 3.57403,-7.43785 0.33809,-0.77277 0.62787,-1.35234 0.86936,-1.83532 0,-0.0483 0.0483,-0.0483 0.0483,-0.0966 1.40064,-5.89233 3.04276,-10.7704 4.92637,-14.53762 2.1734,-4.44339 4.63659,-7.38955 7.24466,-8.83848 2.60808,-1.44894 6.18212,-2.27 10.77039,-2.55979 v 0 c 0.57958,-0.0482 1.06255,0.38639 1.11086,0.91766 0,0.0482 0,0.0482 0,0.0966 0.0483,0.53127 -0.24149,1.11085 -0.82107,1.83531 -3.23594,3.52573 -6.3753,9.75614 -9.41805,18.54633 -3.04276,8.79019 -4.3468,16.17975 -4.00871,22.07207 0.19319,2.70468 0.86935,4.10531 2.02851,4.10531 h 0.0966 c 2.84957,-0.1932 6.4719,-3.71893 10.67381,-10.52891 4.10531,-6.47189 7.34125,-13.42677 9.65954,-20.71973 0.28979,-0.96595 0.67617,-2.31829 1.20744,-4.1536 0.53129,-1.83532 0.91766,-3.04276 1.11085,-3.71893 0.1932,-0.67617 0.57958,-1.64213 1.06256,-2.84957 0.33808,-0.96595 0.82106,-1.83532 1.40062,-2.65637 0.38639,-0.43468 0.96596,-1.01425 1.64214,-1.73872 0.67616,-0.72447 1.44892,-1.25574 2.36658,-1.54553 2.27,-0.67617 4.58829,-1.11084 6.95488,-1.30404 l 5.36104,-0.33809 c 0.24149,-0.0966 0.53128,0.0482 0.62788,0.28979 0.0966,0.2415 -0.0482,0.53128 -0.28979,0.62787 l -0.0966,0.0966 c -2.41489,1.8836 -4.78147,6.3753 -7.00317,13.37847 -1.83531,5.94061 -3.38084,11.44656 -4.58828,16.32463 -1.20745,4.87808 -1.98021,7.87253 -2.26999,8.93508 -0.28979,1.06256 -0.91766,3.67063 -1.88362,7.63105 -0.72446,2.99445 -1.35233,5.45764 -1.88361,7.43785 -0.0966,0.24149 0,0.53127 0.24149,0.62787 0.14489,0.0482 0.33808,0.0482 0.48298,-0.0966 5.26445,-3.13935 10.09422,-6.90657 14.48931,-11.20508 2.46319,-2.46318 21.15442,-23.23121 22.02377,-10.04593 z m -178.84656,-59.696 c -1.88362,0.0966 -5.21616,2.99446 -10.23912,15.93826 -3.47744,8.93508 -6.85829,19.1259 -10.09423,30.33097 -0.0966,0.28979 0.0966,0.53128 0.33808,0.62788 0.19319,0.0482 0.43468,0 0.57958,-0.1932 8.69359,-13.28188 14.7308,-24.34206 17.91846,-32.98735 1.9802,-5.89232 2.89786,-9.80444 2.80127,-11.54317 -0.1449,-2.12509 -0.96596,-2.12509 -1.20745,-2.12509 z m 125.42923,91.04124 c 0.0966,-0.24149 -0.0482,-0.53127 -0.28979,-0.62787 -0.0966,-0.0483 -0.19319,-0.0483 -0.28978,0 -2.60809,0.53127 -5.21617,0.96595 -7.77594,1.59382 -3.62233,0.86937 -9.12828,1.73872 -11.92954,4.78148 -0.0482,0.0482 -0.0482,0.0966 -0.0966,0.1449 -0.48297,1.06255 -0.57957,2.75297 -0.48297,4.87806 0.0966,1.49724 1.54552,2.89787 2.80126,3.91213 1.15915,0.91765 2.65638,1.35233 4.10531,1.20743 5.69913,-0.43467 10.38402,-5.74743 13.95805,-15.88995 z m -86.35636,-62.15919 v 0 c 3.09105,-0.14489 6.95487,-1.30404 7.87253,-5.89233 0.43468,-2.0768 -0.82105,-4.44339 -1.59382,-5.11956 -0.77276,-0.67617 -1.83532,-0.96596 -3.23595,-0.86935 -1.40064,0.0966 -3.09106,0.96595 -4.68488,2.46318 -2.1251,1.98021 -2.02851,4.82978 -1.35234,6.71338 0.62787,1.59383 1.73871,2.65638 2.99446,2.70468 z" id="path51" style="opacity:0.9;fill:#ffffff;stroke-width:0.48297739;enable-background:new"/>
    <path style="fill:#ee350f;fill-opacity:1;stroke:#ee350f;stroke-width:1px;stroke-linecap:butt;stroke-linejoin:miter;stroke-opacity:1" d="m 476.77583,323.99812 c 0.65622,-2.35794 1.3121,-4.7147 1.96766,-7.07026" id="path1138" transform="translate(0.38352841,0.31682781)"/>
    <path style="opacity:1;fill:#ffffff;fill-opacity:1;fill-rule:nonzero;stroke:#ffffff;stroke-width:0.10789739;stroke-linecap:round;stroke-linejoin:round;stroke-miterlimit:4;stroke-dasharray:none;stroke-dashoffset:0;stroke-opacity:1;paint-order:stroke fill markers" d="m 400.67981,368.89993 v -2.85544 l 1.98434,-0.15031 c 8.66006,-0.65597 17.66117,-1.60401 25.46295,-2.68189 4.55401,-0.62918 11.45231,-1.7366 14.07874,-2.26015 10.37637,-2.06839 20.397,-6.90731 29.6643,-14.32477 5.70511,-4.56632 10.75418,-9.73397 15.82145,-16.19302 1.99053,-2.53726 3.1077,-3.83539 6.16996,-7.16942 4.44626,-4.84086 6.27285,-7.04602 7.94013,-9.58577 0.63677,-0.96999 1.20607,-2.27556 1.59584,-3.65975 0.39592,-1.40601 0.48042,-2.20641 0.29784,-2.82123 -0.20859,-0.70241 -0.8409,-0.80033 -1.84709,-0.28604 -1.07042,0.54713 -4.04431,2.71741 -9.155,6.68114 -6.01835,4.66769 -8.73944,6.57266 -11.9936,8.39644 -0.96501,0.54083 -2.71723,1.4266 -2.75244,1.39139 -0.0134,-0.0134 0.29747,-1.18199 0.69079,-2.5969 l 0.71513,-2.57257 0.80041,-0.48669 c 1.87387,-1.1394 4.46607,-2.92591 6.34581,-4.37344 3.32562,-2.56095 5.92628,-4.90199 8.96841,-8.07307 6.11095,-6.37 11.22642,-10.57364 14.56455,-11.96843 2.27979,-0.95258 3.91928,-0.75839 4.80005,0.56855 0.4594,0.69211 0.66106,1.42226 0.90377,3.27219 0.16134,1.22972 -0.49526,4.51317 -1.35385,6.77011 -1.12817,2.9656 -2.80896,6.28536 -4.57591,9.03793 -1.40778,2.19308 -2.41765,3.5872 -5.09733,7.03692 -0.95464,1.22895 -2.30606,2.96984 -3.00316,3.86863 -4.40058,5.67377 -7.72665,9.57937 -12.24109,14.37398 -8.47766,9.00378 -12.65748,13.17445 -17.28594,17.24808 -2.88942,2.54305 -6.08347,5.03048 -8.76813,6.82832 -6.03257,4.03987 -13.73654,7.2014 -22.43125,9.20526 l -1.02132,0.23538 h -19.63918 -19.63918 z" id="path1142"/>
    <path style="opacity:1;fill:#ffffff;fill-opacity:1;fill-rule:nonzero;stroke:#ffffff;stroke-width:0.10789739;stroke-linecap:round;stroke-linejoin:round;stroke-miterlimit:4;stroke-dasharray:none;stroke-dashoffset:0;stroke-opacity:1;paint-order:stroke fill markers" d="m 400.67981,368.89255 v -2.86282 l 0.41687,-0.0403 c 0.22929,-0.0222 1.57247,-0.13063 2.98486,-0.24101 7.96757,-0.62265 16.84811,-1.57081 24.04556,-2.5673 4.24561,-0.5878 10.54096,-1.5893 13.43245,-2.13691 16.03474,-3.03672 31.06996,-12.56649 43.76842,-27.74171 0.46047,-0.55028 1.60387,-1.96099 2.5409,-3.13492 2.05204,-2.57085 2.58969,-3.19967 5.01488,-5.86525 5.53067,-6.0789 6.88142,-7.67997 8.52898,-10.10955 0.67819,-1.0001 0.96038,-1.50359 1.28973,-2.30117 0.91032,-2.2045 1.25417,-4.09571 0.87968,-4.83833 -0.27336,-0.54209 -0.77657,-0.56853 -1.74094,-0.0915 -0.93857,0.46427 -4.21155,2.848 -9.01453,6.56534 -5.30053,4.10244 -8.04649,6.06991 -10.68353,7.65473 -1.68269,1.01128 -4.10962,2.28558 -4.19339,2.20181 -0.0302,-0.0302 0.97562,-3.82569 1.34313,-5.06804 0.0183,-0.062 0.62457,-0.48202 1.34719,-0.93346 3.72305,-2.32587 7.68292,-5.34423 11.05269,-8.42477 0.47691,-0.43597 2.32031,-2.25853 4.09645,-4.05014 3.20751,-3.23546 4.65616,-4.62744 6.43722,-6.18547 3.82912,-3.34961 6.80236,-5.27583 9.02731,-5.84837 0.54211,-0.1395 0.77066,-0.1636 1.38441,-0.14598 0.67183,0.0193 0.77292,0.0397 1.17427,0.23731 1.05668,0.5202 1.55193,1.47202 1.86575,3.58574 0.15476,1.04234 0.14209,1.49701 -0.0797,2.86038 -0.3038,1.86708 -0.84069,3.71769 -1.62774,5.61059 -1.34884,3.24408 -2.79386,5.93051 -4.84352,9.00458 -1.30064,1.9507 -1.89292,2.75322 -4.84888,6.57001 -5.376,6.94159 -7.4725,9.53044 -10.46246,12.91944 -4.23281,4.79773 -13.19459,14.1293 -17.49378,18.21564 -5.34492,5.08028 -10.3566,9.09347 -14.61119,11.70015 -5.64134,3.45631 -12.71258,6.23976 -20.46178,8.05437 l -1.15195,0.26975 h -19.70866 -19.70865 z" id="path1144"/>
    <path style="fill:#ee350f;fill-opacity:1;stroke:#ee350f;stroke-width:1.36699998;stroke-miterlimit:4;stroke-dasharray:none;stroke-opacity:1" d="m 400.67981,368.88851 v -2.86685 l 0.15007,-0.0316 c 0.0825,-0.0174 1.15559,-0.1093 2.38455,-0.20425 9.42957,-0.7286 19.16726,-1.78729 27.04709,-2.94061 6.78134,-0.99255 11.90105,-1.8886 14.60952,-2.55696 13.90913,-3.43231 27.13818,-11.93484 38.45853,-24.71794 1.54957,-1.74979 2.31323,-2.66866 4.90595,-5.903 1.6681,-2.08092 2.61427,-3.17218 5.69918,-6.57314 3.61844,-3.98916 4.97857,-5.56605 6.23952,-7.23388 1.76896,-2.33976 2.39852,-3.47773 3.04434,-5.5028 0.47598,-1.49251 0.60504,-2.75444 0.33511,-3.27662 -0.0735,-0.14218 -0.20597,-0.2974 -0.29437,-0.34493 -0.24228,-0.13027 -0.75247,-0.0484 -1.28993,0.20705 -0.99516,0.47295 -3.84997,2.54226 -9.2094,6.67546 -6.89947,5.32087 -9.772,7.27813 -13.48618,9.18909 -1.10434,0.56818 -1.3547,0.66512 -1.3547,0.52456 0,-0.0681 0.95062,-3.6386 1.21681,-4.57033 l 0.15244,-0.53361 0.62054,-0.4002 c 2.98924,-1.92788 4.63136,-3.07062 6.72572,-4.68041 3.01677,-2.31877 4.696,-3.82409 8.35984,-7.49402 5.23292,-5.24163 6.88331,-6.7821 9.4809,-8.84947 5.56535,-4.42935 9.28945,-5.32347 10.61695,-2.54904 0.45148,0.94358 0.75583,2.61497 0.69128,3.79621 -0.10341,1.89227 -0.80383,4.60874 -1.8144,7.03691 -1.76117,4.23166 -3.95262,7.98549 -7.12588,12.20621 -3.98291,5.29762 -9.18511,11.83684 -12.03023,15.12214 -4.62454,5.34003 -14.65748,15.79107 -19.39564,20.20392 -6.02045,5.60711 -11.09042,9.47123 -15.86616,12.09251 -5.06602,2.78062 -10.76857,4.93539 -17.41541,6.5806 l -1.86598,0.46186 h -19.79503 -19.79503 z" id="path1152"/>
    <path style="fill:#ee350f;fill-opacity:1;stroke:#ee350f;stroke-width:1.95500004;stroke-miterlimit:4;stroke-dasharray:none;stroke-opacity:1" d="m 289.13715,430.71976 c -3.3237,-5.21186 -15.76085,-17.61871 -21.58449,-21.53188 -5.83152,-3.91847 -14.97919,-8.50841 -21.79974,-10.93824 -5.81401,-2.07125 -17.56898,-4.30079 -22.96057,-4.35489 l -3.45152,-0.0346 4.9051,-2.29657 c 30.33805,-14.20433 61.43288,-20.30247 114.70392,-22.4951 10.16865,-0.41854 27.82702,-1.14369 39.24082,-1.61144 11.41379,-0.46775 21.00704,-1.00516 21.31832,-1.19425 0.31129,-0.18909 0.56598,1.03458 0.56598,2.71926 v 3.06306 l 17.54517,0.0827 c 20.00341,0.0943 19.28375,0.53439 -4.7823,2.92473 -41.55209,4.12713 -63.42821,8.85477 -81.91705,17.70307 -10.95946,5.24492 -16.73345,9.19398 -23.6878,16.20103 -6.29513,6.34284 -10.51674,12.74434 -13.55596,20.5558 l -2.01201,5.1713 z" id="path1154"/>
    <rect style="opacity:1;fill:#ee350f;fill-opacity:1;fill-rule:nonzero;stroke:#ee350f;stroke-width:0.96700001;stroke-linecap:round;stroke-linejoin:round;stroke-miterlimit:4;stroke-dasharray:none;stroke-dashoffset:0;stroke-opacity:1;paint-order:stroke fill markers" id="rect1156" width="20.010178" height="8.5376759" x="425.01617" y="368.75421"/>
  </g>
  <text id="text874" y="554.81873" x="205.24272" style="font: bold 152.23px/1.25 Uroob; font-feature-settings: normal; text-align: start; letter-spacing: 0px; word-spacing: 0px; writing-mode: lr-tb; text-anchor: start; fill: rgb(255, 255, 255); fill-opacity: 1; stroke: none; stroke-width: 3.80578; white-space: pre;" transform="matrix(0.628641, 0, 0, 1, 76.215721, 0)"><tspan style="font-style:normal;font-variant:normal;font-weight:bold;font-stretch:normal;font-size:152.22990417px;font-family:Uroob;-inkscape-font-specification:'Uroob, Bold';font-variant-ligatures:normal;font-variant-caps:normal;font-variant-numeric:normal;font-feature-settings:normal;text-align:start;writing-mode:lr-tb;text-anchor:start;fill:#ffffff;fill-opacity:1;stroke-width:3.80577612" y="554.81873" x="205.24272" id="tspan872">Mobile</tspan></text>
  <path transform="matrix(0.10951143,-0.19561631,0.16340456,0.13109927,166.96812,470.35316)" d="m -57.351961,554.67539 -127.713069,8.83691 56.20355,-115.02122 z" id="path1167" style="opacity:1;fill:#ee350f;fill-opacity:1;fill-rule:nonzero;stroke:#ee350f;stroke-width:1.36699998;stroke-linecap:round;stroke-linejoin:round;stroke-miterlimit:4;stroke-dasharray:none;stroke-dashoffset:0;stroke-opacity:1;paint-order:stroke fill markers"/>
  <path id="path1169" d="m 224.17388,394.4355 c -10.42427,-6.70762 -12.38702,-16.71534 -5.28749,-26.95996 3.66248,-5.28497 5.5423,-5.34311 6.36113,-0.19674 1.31324,8.25373 3.05718,13.29917 6.00191,17.36425 3.14943,4.34766 9.87712,8.51558 13.74552,8.51558 5.26947,0 13.55059,-7.08954 16.47717,-14.10625 3.80769,-9.12922 1.31892,-15.98956 -11.75574,-32.4049 -13.05211,-16.38702 -15.86128,-22.0304 -15.90477,-31.95118 -0.0279,-6.3531 0.50073,-8.57677 3.4748,-14.61796 8.32511,-16.91069 24.655,-23.06988 41.71143,-15.7324 5.15819,2.219 11.87663,8.2926 11.87663,10.73672 0,3.22505 -8.71764,13.76642 -11.38474,13.76642 -1.86206,0 -3.15212,-2.83061 -4.02178,-8.82447 -0.42561,-2.9334 -1.794,-6.31645 -3.23033,-7.98628 -2.20357,-2.5618 -3.24464,-2.89705 -8.99643,-2.89705 -8.36363,0 -11.03014,2.41865 -13.63045,12.36347 -2.6229,10.03119 -1.29578,13.78538 8.62218,24.39068 9.04496,9.6718 18.20658,22.91545 19.7857,28.60139 4.24245,15.27581 -5.12169,32.71393 -20.76125,38.66207 -9.23254,3.51138 -28.45755,4.25323 -33.08349,1.27661 z" style="fill:#ffffff;stroke:none;stroke-width:1.06720948;fill-opacity:1"/>
  <path id="path1171" d="m 453.20777,401.27421 c -5.75055,-3.18728 -6.81489,-9.34028 -2.80057,-16.19018 3.36165,-5.73623 8.69293,-8.38883 22.85435,-11.37129 l 10.73156,-2.26012 1.64372,-5.65421 c 3.91387,-13.46321 3.80997,-13.54952 -5.00475,-4.15759 l -7.98001,8.50255 -6.17871,0.0351 c -5.44898,0.031 -6.42896,-0.29709 -8.29743,-2.77778 -1.16528,-1.5471 -2.36847,-5.02887 -2.67374,-7.73727 -0.30528,-2.7084 -0.9272,-4.92436 -1.38206,-4.92436 -0.45485,0 -2.15974,2.27414 -3.78863,5.05364 -4.06994,6.94481 -11.98569,15.22144 -16.29471,17.03756 -4.4035,1.85595 -9.19557,0.95487 -11.36063,-2.13619 -2.79659,-3.99269 -2.00082,-15.60654 2.28135,-33.29513 4.93239,-20.37446 5.03908,-22.30529 1.25662,-22.74225 -10.97275,-1.26759 -20.15349,15.1833 -26.98563,48.35528 l -2.41784,11.7393 -7.1774,0.87897 c -3.94757,0.48343 -7.35514,0.70122 -7.57239,0.48398 -0.21724,-0.21724 0.30199,-3.01401 1.15386,-6.21501 2.15776,-8.10818 1.90421,-9.65417 -0.86036,-5.24575 -7.14204,11.38881 -13.87569,17.03467 -20.31672,17.03467 -5.26858,0 -8.18809,-4.46795 -8.19383,-12.53971 -0.002,-3.08156 -0.44304,-5.60285 -0.97966,-5.60285 -0.53662,0 -2.51397,2.52129 -4.39411,5.60285 -5.37467,8.80915 -10.47155,14.54565 -14.95692,16.83392 -5.40454,2.75719 -7.72991,2.66024 -11.36327,-0.47372 -2.89983,-2.50125 -2.99104,-2.89706 -2.88982,-12.53971 0.0825,-7.8604 0.92518,-13.01969 4.00203,-24.5026 4.30797,-16.07747 4.63629,-18.85493 2.33329,-19.73868 -2.64066,-1.01331 -10.41033,4.12109 -14.5713,9.62911 -5.11104,6.76564 -8.51635,16.15821 -12.75567,35.18278 l -3.42936,15.3898 -7.05153,0.48588 c -3.87833,0.26723 -7.18986,0.38058 -7.35893,0.25189 -0.70229,-0.53452 17.17595,-69.74404 21.1387,-81.83124 7.30606,-22.28502 16.38584,-37.73096 24.71039,-42.03575 4.52527,-2.34011 11.57181,-2.24959 13.34208,0.17139 4.75159,6.49819 -1.2097,24.195 -16.1008,47.79718 -5.36795,8.50813 -6.76406,11.35736 -5.56505,11.35736 0.21956,0 2.50365,-1.1762 5.07577,-2.61379 7.0472,-3.93875 12.53455,-4.50717 16.13912,-1.67181 3.89674,3.06517 3.85903,7.67402 -0.17784,21.73531 -6.38761,22.24946 -6.98698,29.74452 -2.43027,30.3904 5.37394,0.76171 14.97524,-14.41721 21.52516,-34.02965 4.0598,-12.15624 8.11461,-19.88979 11.76214,-22.43336 1.46741,-1.02328 5.1269,-2.0666 8.1322,-2.31847 l 5.46417,-0.45796 -2.95437,5.96647 c -4.11382,8.30801 -11.46634,30.45826 -12.3234,37.12553 -0.87252,6.78757 0.053,10.99571 2.41827,10.99571 5.95356,0 21.10542,-26.10943 24.28237,-41.84298 0.91355,-4.52423 1.661,-10.1671 1.661,-12.53971 v -4.31383 h 6.27258 c 7.11035,0 9.31055,1.5648 8.23359,5.85579 -0.92977,3.70447 0.43416,3.37222 6.40234,-1.55959 9.1911,-7.59509 19.89352,-9.69898 23.83682,-4.68588 2.99734,3.81049 2.80371,8.35506 -0.92596,21.73387 -3.8975,13.98079 -5.92587,24.83728 -5.06139,27.09009 1.10271,2.87362 4.67682,1.94823 8.79621,-2.27747 4.53299,-4.64999 13.24369,-21.435 15.89912,-30.63669 2.53634,-8.78901 6.27237,-15.80005 10.16481,-19.07532 4.54581,-3.82505 14.96026,-6.58787 14.96026,-3.96877 0,0.55754 -1.40413,3.09423 -3.12027,5.63709 -6.87741,10.19038 -13.23254,31.21351 -12.68102,41.94959 0.29458,5.73452 0.5715,6.39557 2.81212,6.71296 5.88261,0.83328 17.12119,-16.73211 24.31791,-38.00781 2.48294,-7.34032 5.43954,-14.27115 6.57023,-15.40184 2.21125,-2.21125 8.27325,-3.97157 13.81835,-4.01265 l 3.43627,-0.0255 -2.56115,3.77407 c -3.45527,5.09161 -6.8158,15.61487 -14.34136,44.90893 -6.93187,26.98304 -10.12752,34.71139 -17.35371,41.96811 -6.72797,6.75639 -13.58453,9.65203 -22.77516,9.61834 -4.15354,-0.0153 -8.60293,-0.65508 -10.02103,-1.44107 z m 15.81655,-4.34201 c 1.66184,-0.85937 4.34632,-3.13693 5.96551,-5.06123 3.16574,-3.76227 7.33299,-12.52395 6.40028,-13.45666 -0.88778,-0.88777 -16.39917,2.7472 -20.70188,4.85131 -3.2776,1.60282 -3.91272,2.49286 -4.19302,5.87596 -0.25737,3.10648 0.26222,4.57957 2.35271,6.67006 3.05836,3.05835 5.83736,3.36437 10.1764,1.12056 z M 317.30078,318.22924 c 11.89873,-19.41363 20.05556,-39.80248 18.03257,-45.07431 -0.65401,-1.70431 -0.97673,-1.74159 -3.11763,-0.3602 -3.8345,2.47416 -9.79968,14.99573 -16.18686,33.97795 -8.23112,24.46228 -7.99621,26.57818 1.27192,11.45656 z" style="fill:#ffffff;stroke:none;stroke-width:1.06720948;fill-opacity:1"/>
  <path id="path1173" d="m 377.35598,303.5832 c -1.82292,-3.40618 -1.26536,-6.19217 1.70719,-8.53038 5.77056,-4.53912 11.46917,-0.89328 8.95203,5.7273 -1.81803,4.78179 -8.64011,6.5758 -10.65922,2.80308 z" style="fill:#ffffff;stroke:none;stroke-width:1.06720948;fill-opacity:1"/>
  <rect y="405.02243" x="501.55798" height="97.175323" width="26.247116" id="rect1175" style="opacity:1;fill:#ffffff;fill-opacity:1;fill-rule:nonzero;stroke:none;stroke-width:2.26079941;stroke-linecap:round;stroke-linejoin:round;stroke-miterlimit:4;stroke-dasharray:none;stroke-dashoffset:0;stroke-opacity:1;paint-order:stroke fill markers"/>
</svg>